<?xml version="1.0" encoding="UTF-8" standalone="no"?>
<svg
   xmlns:dc="http://purl.org/dc/elements/1.1/"
   xmlns:cc="http://creativecommons.org/ns#"
   xmlns:rdf="http://www.w3.org/1999/02/22-rdf-syntax-ns#"
   xmlns:svg="http://www.w3.org/2000/svg"
   xmlns="http://www.w3.org/2000/svg"
   xmlns:sodipodi="http://sodipodi.sourceforge.net/DTD/sodipodi-0.dtd"
   xmlns:inkscape="http://www.inkscape.org/namespaces/inkscape"
   height="24px"
   viewBox="0 0 24 24"
   width="24px"
   fill="#000000"
   version="1.1"
   id="svg6"
   sodipodi:docname="account_circle.svg"
   inkscape:version="1.0.1 (3bc2e813f5, 2020-09-07)">
  <metadata
     id="metadata12">
    <rdf:RDF>
      <cc:Work
         rdf:about="">
        <dc:format>image/svg+xml</dc:format>
        <dc:type
           rdf:resource="http://purl.org/dc/dcmitype/StillImage" />
      </cc:Work>
    </rdf:RDF>
  </metadata>
  <defs
     id="defs10" />
  <sodipodi:namedview
     pagecolor="#ffffff"
     bordercolor="#666666"
     borderopacity="1"
     objecttolerance="10"
     gridtolerance="10"
     guidetolerance="10"
     inkscape:pageopacity="0"
     inkscape:pageshadow="2"
     inkscape:window-width="1828"
     inkscape:window-height="872"
     id="namedview8"
     showgrid="false"
     inkscape:zoom="35.916667"
     inkscape:cx="12"
     inkscape:cy="12"
     inkscape:window-x="0"
     inkscape:window-y="27"
     inkscape:window-maximized="0"
     inkscape:current-layer="svg6"
     inkscape:document-rotation="0" />
  <path
     d="M0 0h24v24H0z"
     fill="none"
     id="path2" />
  <path
     d="M 12,2 C 6.48,2 2,6.48 2,12 2,17.52 6.48,22 12,22 17.52,22 22,17.52 22,12 22,6.48 17.52,2 12,2 Z m 0,3 c 1.66,0 3,1.34 3,3 0,1.66 -1.34,3 -3,3 C 10.34,11 9,9.66 9,8 9,6.34 10.34,5 12,5 Z m 0,14.2 c -2.5,0 -4.71,-1.28 -6,-3.22 0.03,-1.99 4,-3.08 6,-3.08 1.99,0 5.97,1.09 6,3.08 -1.29,1.94 -3.5,3.22 -6,3.22 z"
     id="path4"
     style="stroke-width:1;fill:#808080;fill-opacity:1" />
  <path
     style="fill:#e6e6e6;stroke-width:0.0278422"
     d="M 11.63967,10.966449 C 10.517598,10.836441 9.5400232,10.041309 9.1720183,8.9593298 8.9500652,8.3067606 8.9725053,7.5271153 9.2318943,6.8790366 9.4322734,6.3783929 9.8635478,5.8379847 10.29821,5.5428894 10.555944,5.3679122 10.956143,5.1865173 11.26838,5.1031479 11.509635,5.0387312 11.592864,5.0304625 12,5.0304625 c 0.408871,0 0.490019,0.00814 0.737819,0.073988 0.52447,0.1393735 0.987941,0.4043438 1.367792,0.7819778 1.162655,1.1558698 1.168706,3.0493474 0.01347,4.2155017 -0.481186,0.485733 -1.111246,0.789823 -1.794287,0.865987 -0.298473,0.03328 -0.386844,0.03309 -0.685127,-0.0015 z"
     id="path844" />
  <path
     style="fill:#e6e6e6;stroke-width:0.0278422"
     d="M 11.415313,19.166449 C 10.96483,19.112753 10.808634,19.089719 10.566125,19.041218 9.3256931,18.793139 8.1006943,18.172345 7.1788568,17.324648 6.6516691,16.83986 6.0153184,16.072351 6.0143832,15.920164 6.0126398,15.636439 6.204643,15.201332 6.4673282,14.893726 7.1777388,14.06183 8.7751019,13.350314 10.61603,13.045763 c 1.045491,-0.172959 1.724315,-0.172633 2.776081,0.0013 1.827425,0.302266 3.432753,1.018693 4.141997,1.848495 0.261145,0.305534 0.453162,0.741233 0.45154,1.024572 -8.71e-4,0.152374 -0.62092,0.900348 -1.165089,1.405465 -1.002838,0.930871 -2.373197,1.576174 -3.804318,1.791457 -0.265613,0.03996 -1.389195,0.0746 -1.600928,0.04936 z"
     id="path846" />
</svg>
